#!OML:ASF F:\VICON\USERDATA\INSTALL\rory3\rory3.ASF
:FULLY-SPECIFIED
:DEGREES
4688
root -2.07464 17.5519 -0.166552 8.54856 -24.2432 4.68902
lowerback 8.41236 -6.94739 -6.57131
upperback 1.53795 -9.71274 6.35382
thorax -0.829961 -4.96221 11.1651
lowerneck -22.7577 5.51401 -4.80439
upperneck 24.4615 7.73186 5.91021
head 11.2474 3.79641 4.18942
rclavicle -9.42239e-014 -6.36111e-015
rhumerus -46.8063 22.8843 -67.3063
rradius 102.781
rwrist 37.1569
rhand -28.7831 10.0577
rfingers 7.12502
rthumb -2.14226 -19.9113
lclavicle -9.42239e-014 -6.36111e-015
lhumerus 8.05899 3.75767 47.5883
lradius 59.3471
lwrist -11.102
lhand -31.4717 26.9379
lfingers 7.12502
lthumb -4.73859 56.8649
rfemur -32.4812 10.0645 7.64363
rtibia 40.904
rfoot -14.0023 3.53241
rtoes 6.59321
lfemur -17.1459 9.4474 -20.1217
ltibia 29.3333
lfoot -16.1883 15.3149
ltoes -16.9588
4689
root -2.07792 17.5566 -0.192886 8.92954 -25.1183 4.698
lowerback 8.23395 -7.11401 -6.60149
upperback 1.9283 -9.93948 6.26536
thorax -0.275761 -5.12339 11.0216
lowerneck -23.0691 5.83695 -4.2647
upperneck 24.3513 8.00371 5.89407
head 11.2728 3.96976 4.1455
rclavicle 1.11319e-014 -3.65764e-014
rhumerus -46.446 21.931 -67.3109
rradius 101.459
rwrist 37.8129
rhand -29.0402 10.9608
rfingers 7.12502
rthumb -2.39051 -19.0055
lclavicle 1.11319e-014 -3.65764e-014
lhumerus 9.66493 4.95133 45.657
lradius 56.5199
lwrist -9.52124
lhand -30.5551 26.776
lfingers 7.12502
lthumb -3.85356 56.7209
rfemur -33.2685 10.4559 7.5244
rtibia 40.8695
rfoot -13.602 3.69448
rtoes 6.923
lfemur -17.526 9.7499 -20.2321
ltibia 29.3172
lfoot -16.2549 15.7482
ltoes -16.5173
4690
root -2.08127 17.5581 -0.218607 9.31959 -26.0364 4.7583
lowerback 8.30501 -7.29518 -7.05347
upperback 2.09007 -10.231 6.49857
thorax 0.0552912 -5.31065 11.5295
lowerneck -23.0887 6.22734 -4.14302
upperneck 24.1886 8.55999 5.70601
head 11.195 4.21185 4.12948
rclavicle -9.34288e-014 8.42847e-014
rhumerus -46.5545 21.6895 -66.8034
rradius 100.669
rwrist 38.22
rhand -29.4503 11.4369
rfingers 7.12502
rthumb -2.78664 -18.5247
lclavicle -9.34288e-014 8.42847e-014
lhumerus 10.6114 6.47367 44.2334
lradius 53.5698
lwrist -8.38055
lhand -30.2259 26.2934
lfingers 7.12502
lthumb -3.53563 56.2438
rfemur -34.0962 10.8323 7.33048
rtibia 40.848
rfoot -13.1998 3.8672
rtoes 7.17038
lfemur -17.9212 10.1695 -20.4146
ltibia 29.2652
lfoot -16.2659 16.0974
ltoes -16.1136
4691
root -2.08292 17.5626 -0.23828 9.53815 -26.6565 4.67679
lowerback 8.9208 -7.5691 -7.06504
upperback 2.02111 -10.6234 6.65683
thorax -0.222401 -5.49691 11.8235
lowerneck -22.7786 6.60396 -4.15672
upperneck 24.2025 9.07792 5.69858
head 11.1073 4.44363 4.18618
rclavicle 1.18078e-013 -6.12257e-014
rhumerus -47.3128 21.6425 -66.4188
rradius 100.125
rwrist 38.4022
rhand -29.9137 11.6948
rfingers 7.12502
rthumb -3.2341 -18.2605
lclavicle 1.18078e-013 -6.12257e-014
lhumerus 10.8665 7.40912 42.5155
lradius 50.877
lwrist -7.27498
lhand -30.2114 25.8428
lfingers 7.12502
lthumb -3.52161 55.7935
rfemur -34.5512 11.0189 7.37437
rtibia 40.8238
rfoot -12.8702 4.05073
rtoes 7.11628
lfemur -18.0869 10.2106 -20.3839
ltibia 29.259
lfoot -16.3296 16.5541
ltoes -16.036
4692
root -2.08342 17.566 -0.252181 9.20878 -26.5417 4.74733
lowerback 9.87164 -8.07541 -7.03309
upperback 2.2252 -11.3381 6.72848
thorax -0.332177 -5.86657 12.0395
lowerneck -22.6421 6.97866 -4.22152
upperneck 24.0743 9.60558 5.7383
head 10.993 4.68697 4.26839
rclavicle -3.18055e-015 -2.54444e-014
rhumerus -47.3797 21.438 -66.0031
rradius 99.1937
rwrist 38.6096
rhand -30.2957 11.885
rfingers 7.12502
rthumb -3.60302 -18.0643
lclavicle -3.18055e-015 -2.54444e-014
lhumerus 11.2777 8.6728 40.7884
lradius 48.1979
lwrist -6.67653
lhand -29.8742 25.494
lfingers 7.12502
lthumb -3.19595 55.4498
rfemur -34.2217 10.9988 7.44488
rtibia 40.823
rfoot -12.8649 3.97479
rtoes 7.50673
lfemur -17.8047 9.97553 -20.3297
ltibia 29.2737
lfoot -16.2764 16.6809
ltoes -16.3077
4693
root -2.08808 17.5632 -0.280783 9.56117 -27.2794 4.66414
lowerback 10.3388 -8.19149 -7.30821
upperback 2.20792 -11.5434 6.99565
thorax -0.434655 -5.97795 12.5811
lowerneck -22.3025 7.27056 -4.28374
upperneck 23.8257 10.0756 5.53485
head 10.8161 4.87686 4.2363
rclavicle -5.56597e-015 -2.70347e-014
rhumerus -47.6243 21.128 -65.3709
rradius 98.1906
rwrist 38.8726
rhand -30.8868 12.0055
rfingers 7.12502
rthumb -4.1738 -17.9333
lclavicle -5.56597e-015 -2.70347e-014
lhumerus 11.6627 9.77785 39.4535
lradius 45.5695
lwrist -6.41094
lhand -29.5571 25.2107
lfingers 7.12502
lthumb -2.88976 55.1709
rfemur -34.9388 11.3034 7.46313
rtibia 40.8533
rfoot -12.5089 4.02072
rtoes 6.96933
lfemur -18.2012 10.4432 -20.3282
ltibia 29.3287
lfoot -16.302 16.8802
ltoes -15.9129
4694
root -2.08744 17.5613 -0.310391 9.94159 -27.9264 4.6892
lowerback 10.7755 -8.32669 -7.39355
upperback 2.06538 -11.7484 7.13093
thorax -0.720713 -6.06291 12.8829
lowerneck -21.8147 7.47921 -4.57835
upperneck 23.6418 10.4016 5.68287
head 10.6081 5.02683 4.33763
rclavicle 1.51076e-014 7.95139e-016
rhumerus -48.3241 20.7864 -64.8832
rradius 97.4049
rwrist 39.271
rhand -31.4247 12.2235
rfingers 7.12502
rthumb -4.69323 -17.7045
lclavicle 1.51076e-014 7.95139e-016
lhumerus 12.0014 10.5276 37.9602
lradius 42.9068
lwrist -6.34126
lhand -30.0261 24.8469
lfingers 7.12502
lthumb -3.34264 54.8004
rfemur -35.7297 11.5194 7.33122
rtibia 40.8987
rfoot -12.1703 4.17424
rtoes 6.97936
lfemur -18.7172 10.846 -20.4563
ltibia 29.434
lfoot -16.3704 17.0017
ltoes -15.5411
4695
root -2.08662 17.5577 -0.333071 10.2387 -28.6678 4.91754
lowerback 10.8981 -8.43576 -7.76351
upperback 2.18176 -11.9466 7.20883
thorax -0.510837 -6.19171 13.1886
lowerneck -21.7159 7.70682 -4.70959
upperneck 23.4009 10.7673 5.64203
head 10.4721 5.18642 4.37024
rclavicle -1.35174e-013 8.26944e-014
rhumerus -48.5364 20.2952 -64.4432
rradius 96.6685
rwrist 39.4659
rhand -31.3847 12.4865
rfingers 7.12502
rthumb -4.65462 -17.4423
lclavicle -1.35174e-013 8.26944e-014
lhumerus 12.4961 11.6481 36.5167
lradius 40.2208
lwrist -6.80981
lhand -30.8616 24.8642
lfingers 7.12502
lthumb -4.14945 54.8036
rfemur -36.5355 11.6106 7.01556
rtibia 40.9568
rfoot -11.759 4.457
rtoes 6.86694
lfemur -19.2604 11.4373 -20.8438
ltibia 29.632
lfoot -16.4345 17.0928
ltoes -15.6438
4696
root -2.08866 17.5531 -0.358319 10.5314 -29.4127 4.89726
lowerback 11.1683 -8.51544 -7.99933
upperback 2.46116 -12.0998 7.26134
thorax -0.249327 -6.30918 13.4012
lowerneck -21.9937 7.95978 -4.53697
upperneck 23.2416 11.1099 5.50037
head 10.464 5.34465 4.34572
rclavicle 1.70557e-013 -6.91771e-014
rhumerus -48.4845 19.5076 -64.2837
rradius 95.905
rwrist 39.4952
rhand -30.749 12.4972
rfingers 7.12502
rthumb -4.04072 -17.4442
lclavicle 1.70557e-013 -6.91771e-014
lhumerus 13.0984 13.0761 35.0584
lradius 37.5797
lwrist -7.56007
lhand -31.3791 24.9283
lfingers 7.12502
lthumb -4.64921 54.8573
rfemur -37.2213 11.8753 6.9478
rtibia 40.983
rfoot -11.3987 4.69562
rtoes 7.0003
lfemur -19.715 12.0483 -20.9514
ltibia 29.8483
lfoot -16.4351 17.2275
ltoes -15.7134
4697
root -2.0887 17.5494 -0.382976 10.981 -30.2179 4.71228
lowerback 11.345 -8.63186 -8.10344
upperback 2.83277 -12.285 7.29614
thorax 0.141443 -6.45572 13.4906
lowerneck -22.4486 8.2535 -4.40426
upperneck 22.9862 11.4859 5.51776
head 10.4377 5.53929 4.39223
rclavicle -4.49253e-014 -6.12257e-014
rhumerus -48.2783 18.8649 -64.2146
rradius 95.2822
rwrist 39.1489
rhand -30.2966 11.9939
rfingers 7.12502
rthumb -3.60388 -17.9554
lclavicle -4.49253e-014 -6.12257e-014
lhumerus 13.6589 14.8496 33.4041
lradius 34.967
lwrist -8.40743
lhand -31.3027 24.9247
lfingers 7.12502
lthumb -4.57547 54.8553
rfemur -38.0104 12.1468 7.01297
rtibia 41.016
rfoot -11.0371 4.97911
rtoes 7.07679
lfemur -20.2366 12.5952 -20.9242
ltibia 30.0389
lfoot -16.4881 17.4453
ltoes -15.5819
4698
root -2.08906 17.5473 -0.403187 11.5306 -31.0065 4.59381
lowerback 11.4646 -8.7997 -8.23529
upperback 3.05311 -12.5372 7.34309
thorax 0.430709 -6.62273 13.6142
lowerneck -22.7202 8.63548 -4.20375
upperneck 22.8199 11.985 5.40753
head 10.417 5.77601 4.39524
rclavicle 1.11319e-013 -6.2816e-014
rhumerus -48.5566 18.8461 -64.1487
rradius 95.0541
rwrist 38.603
rhand -30.008 11.5132
rfingers 7.12502
rthumb -3.32515 -18.4407
lclavicle 1.11319e-013 -6.2816e-014
lhumerus 13.8563 16.5456 31.6417
lradius 32.5642
lwrist -8.96173
lhand -30.8921 24.7641
lfingers 7.12502
lthumb -4.17893 54.7028
rfemur -38.8947 12.3037 6.99849
rtibia 41.0383
rfoot -10.6782 5.24263
rtoes 7.26265
lfemur -20.8971 13.3399 -21.0328
ltibia 30.2527
lfoot -16.5268 17.4715
ltoes -15.6265
4699
root -2.08554 17.5443 -0.421919 11.6917 -31.5997 4.78212
lowerback 12.0621 -8.95061 -8.50614
upperback 3.12464 -12.8014 7.34116
thorax 0.326937 -6.76164 13.8779
lowerneck -22.7688 8.93788 -4.07433
upperneck 22.6507 12.4011 5.24761
head 10.3602 5.96279 4.36747
rclavicle 9.54166e-014 1.15295e-014
rhumerus -49.2619 18.8668 -63.9734
rradius 94.8707
rwrist 38.534
rhand -30.2887 11.8258
rfingers 7.12502
rthumb -3.59622 -18.1236
lclavicle 9.54166e-014 1.15295e-014
lhumerus 14.0337 18.3621 30.2193
lradius 30.1515
lwrist -9.83064
lhand -30.2009 24.4442
lfingers 7.12502
lthumb -3.51147 54.3951
rfemur -39.4466 12.3646 6.75444
rtibia 41.0621
rfoot -10.3707 5.52787
rtoes 7.35152
lfemur -21.3084 13.8561 -21.3475
ltibia 30.4757
lfoot -16.6247 17.4499
ltoes -15.76
4700
root -2.08174 17.5412 -0.43973 12.0395 -32.3099 4.79324
lowerback 12.3885 -9.00304 -8.59664
upperback 3.27997 -12.9016 7.35074
thorax 0.374568 -6.82892 13.9892
lowerneck -22.9098 9.13428 -4.04062
upperneck 22.4217 12.6903 5.14815
head 10.2955 6.09368 4.36057
rclavicle 1.98785e-016 7.95139e-016
rhumerus -49.6847 18.3365 -63.5832
rradius 94.3091
rwrist 38.9567
rhand -30.9389 12.6278
rfingers 7.12502
rthumb -4.22413 -17.3101
lclavicle 1.98785e-016 7.95139e-016
lhumerus 14.4171 19.9511 28.7876
lradius 27.9043
lwrist -10.3064
lhand -29.3588 24.4551
lfingers 7.12502
lthumb -2.69825 54.4178
rfemur -40.145 12.5052 6.64186
rtibia 41.094
rfoot -10.0256 5.77132
rtoes 6.83215
lfemur -21.8384 14.4979 -21.5632
ltibia 30.7072
lfoot -16.7309 17.4731
ltoes -15.5707
